<?xml version="1.0" encoding="utf-8"?>
<!-- Generator: Adobe Illustrator 22.0.1, SVG Export Plug-In . SVG Version: 6.00 Build 0)  -->
<svg version="1.1" id="Слой_1" xmlns="http://www.w3.org/2000/svg" xmlns:xlink="http://www.w3.org/1999/xlink" x="0px" y="0px"
	 viewBox="0 0 136.9 59.2" style="enable-background:new 0 0 136.9 59.2;" xml:space="preserve">
<style type="text/css">
	.st0{fill:url(#SVGID_1_);}
	.st1{fill:url(#SVGID_2_);}
	.st2{fill:url(#SVGID_3_);}
	.st3{fill:url(#SVGID_4_);}
	.st4{fill:url(#SVGID_5_);}
	.st5{fill:url(#SVGID_6_);}
	.st6{fill:url(#SVGID_7_);}
	.st7{opacity:0.75;fill:#FFFFFF;}
	.st8{fill:url(#SVGID_8_);}
	.st9{fill:url(#SVGID_9_);}
	.st10{fill:url(#SVGID_10_);}
	.st11{fill:url(#SVGID_11_);}
	.st12{fill:url(#SVGID_12_);}
	.st13{fill:url(#SVGID_13_);}
	.st14{fill:url(#SVGID_14_);}
	.st15{fill:url(#SVGID_15_);}
	.st16{fill:url(#SVGID_16_);}
	.st17{fill:url(#SVGID_17_);}
	.st18{fill:url(#SVGID_18_);}
	.st19{fill:url(#SVGID_19_);}
	.st20{fill:url(#SVGID_20_);}
	.st21{fill:url(#SVGID_21_);}
	.st22{fill:url(#SVGID_22_);}
	.st23{fill:url(#SVGID_23_);}
	.st24{fill:url(#SVGID_24_);}
	.st25{fill:url(#SVGID_25_);}
	.st26{fill:url(#SVGID_26_);}
	.st27{fill:#FFFFFF;}
	.st28{fill-rule:evenodd;clip-rule:evenodd;fill:#0C1211;}
	.st29{fill-rule:evenodd;clip-rule:evenodd;fill:#FFFFFF;}
	.st30{fill:#0F1413;}
	.st31{fill-rule:evenodd;clip-rule:evenodd;fill:#FEFFFF;}
	.st32{fill:#0C1211;}
	.st33{fill-rule:evenodd;clip-rule:evenodd;fill:#080E0D;}
	.st34{fill:#FEFFFF;}
	.st35{fill:#0C1110;}
	.st36{fill-rule:evenodd;clip-rule:evenodd;fill:#FDFDFE;}
	.st37{clip-path:url(#SVGID_28_);}
	.st38{clip-path:url(#SVGID_32_);}
	.st39{fill:#080E0D;}
	.st40{fill:#373839;}
	.st41{fill-rule:evenodd;clip-rule:evenodd;fill:#373839;}
</style>
<g>
	<path d="M86.4,44.1c-8-0.8-16-1.4-23-1.4V14.1H53.1V43c-16.2,0.9-32.6,3.8-42.9,5.9V40h20.7v-8H10.2v-9.7h23.4v-8.3H0v37v7.5v0
		c0,0,15.5-3.8,34.5-6.3c6-0.8,12.3-1.4,18.6-1.8c3.5-0.2,6.9-0.3,10.3-0.3c6.8,0,14.5,0.5,22.3,1.3c1.6,0.2,3.2,0.3,4.8,0.5
		c-0.6-0.7-1.1-1.5-1.6-2.4C87.8,47.9,87,46,86.4,44.1z"/>
	<path d="M31,5.9V0C21.9,3.6,11.8,3.6,2.7,0v5.9C11.8,9.5,21.9,9.5,31,5.9z"/>
	<path d="M133.8,24.6c-2.1-3.5-5-6.2-8.7-8.2c-3.7-2-7.8-3-12.5-3c-4.6,0-8.8,1-12.5,3c-3.7,2-6.6,4.7-8.7,8.2
		c-2.1,3.5-3.1,7.4-3.1,11.8c0,2.9,0.5,5.6,1.4,8.1c0.5,1.3,1.1,2.5,1.8,3.7c1,1.6,2.1,3.1,3.5,4.4c1.5,1.5,3.3,2.8,5.2,3.8
		c3.7,2,7.9,3,12.5,3c4.2,0,7.9-0.8,11.3-2.4c0.4-0.2,0.7-0.4,1.1-0.6c2.7-1.4,4.9-3.3,6.8-5.5c0.7-0.8,1.3-1.8,1.9-2.7
		c2.1-3.5,3.2-7.4,3.2-11.8C136.9,32,135.9,28.1,133.8,24.6z M119.7,48.8c-2.1,1.2-4.5,1.8-7.1,1.8c-2.6,0-5-0.6-7.1-1.8
		c-1.3-0.8-2.5-1.7-3.4-2.8c-0.6-0.7-1.1-1.4-1.6-2.2c-1.2-2.2-1.8-4.6-1.8-7.4c0-2.8,0.6-5.2,1.8-7.4c1.2-2.2,2.9-3.9,5-5.1
		c2.1-1.2,4.5-1.8,7.1-1.8c2.6,0,5,0.6,7.1,1.8c2.1,1.2,3.8,2.9,5,5.1c1.2,2.2,1.8,4.6,1.8,7.4c0,2.8-0.6,5.2-1.8,7.4
		c-1.2,2.1-2.8,3.8-4.9,5C119.8,48.7,119.7,48.8,119.7,48.8z"/>
</g>
</svg>
