<!-- Generator: Adobe Illustrator 22.0.1, SVG Export Plug-In  -->
<svg version="1.1"
	 xmlns="http://www.w3.org/2000/svg" xmlns:xlink="http://www.w3.org/1999/xlink" xmlns:a="http://ns.adobe.com/AdobeSVGViewerExtensions/3.0/"
	 x="0px" y="0px" width="131.151px" height="163.857px" viewBox="0 0 131.151 163.857"
	 style="enable-background:new 0 0 131.151 163.857;" xml:space="preserve">
<style type="text/css">
	.st0{fill:#D5FFFF;}
	.st1{fill:url(#SVGID_1_);}
	.st2{fill:url(#SVGID_2_);}
	.st3{fill:url(#SVGID_3_);}
	.st4{fill:url(#SVGID_4_);}
	.st5{fill:url(#SVGID_5_);}
	.st6{fill:url(#SVGID_6_);}
</style>
<defs>
</defs>
<g>
	<g>
		<path class="st0" d="M99.147,163.857H42.842c-4.521,0-8.186-3.665-8.186-8.186v-26.866c0-7.884,3.877-15.263,10.369-19.735
			l22.999-15.844c1.789-1.232,4.153-1.232,5.941,0l22.999,15.844c6.492,4.472,10.369,11.852,10.369,19.735v26.866
			C107.334,160.191,103.668,163.857,99.147,163.857z"/>
		<path class="st0" d="M42.842,20.834h56.305c4.521,0,8.186,3.665,8.186,8.186v26.866c0,7.883-3.877,15.263-10.369,19.735
			L73.965,91.466c-1.789,1.232-4.153,1.232-5.941,0L45.025,75.622c-6.492-4.472-10.369-11.852-10.369-19.735V29.02
			C34.656,24.499,38.321,20.834,42.842,20.834z"/>
	</g>
	<g>
		<linearGradient id="SVGID_1_" gradientUnits="userSpaceOnUse" x1="79.9868" y1="193.9799" x2="56.6911" y2="7.1286">
			<stop  offset="0" style="stop-color:#00CEFF"/>
			<stop  offset="1" style="stop-color:#0052FF"/>
		</linearGradient>
		<path class="st1" d="M127.081,148.639h-6.178v-10.248h-12.814v-24.688c0-7.427-3.689-14.323-9.868-18.445L72.905,78.39
			l25.317-16.868c6.178-4.122,9.867-11.017,9.867-18.445V18.389h12.814V8.141h6.178c2.244,0,4.07-1.826,4.07-4.07
			c0-2.244-1.826-4.07-4.07-4.07H4.07C1.826,0,0,1.826,0,4.07c0,2.244,1.826,4.07,4.07,4.07h6.178v10.248h12.814v24.688
			c0,7.427,3.689,14.323,9.868,18.445L58.247,78.39L32.929,95.258c-6.178,4.122-9.867,11.017-9.867,18.445v24.688H10.248v10.248
			H4.07c-2.244,0-4.07,1.826-4.07,4.07c0,2.244,1.826,4.07,4.07,4.07h123.011c2.244,0,4.07-1.826,4.07-4.07
			C131.151,150.465,129.325,148.639,127.081,148.639z M112.763,8.141v2.108H18.389V8.141H112.763z M31.203,18.389h68.745v24.688
			c0,4.702-2.332,9.067-6.237,11.675L65.576,73.504L37.44,54.752c-3.905-2.609-6.237-6.974-6.237-11.675V18.389z M65.576,83.276
			l28.135,18.751c3.906,2.609,6.238,6.974,6.238,11.676v24.688H31.203v-24.688c0-4.702,2.332-9.067,6.237-11.675L65.576,83.276z
			 M112.763,146.532v2.108H18.389v-2.108H112.763z"/>
		<linearGradient id="SVGID_2_" gradientUnits="userSpaceOnUse" x1="63.2115" y1="196.0714" x2="39.9157" y2="9.2201">
			<stop  offset="0" style="stop-color:#00CEFF"/>
			<stop  offset="1" style="stop-color:#0052FF"/>
		</linearGradient>
		<path class="st2" d="M38.626,52.988l11.875,7.911c0.663,0.451,1.465,0.7,2.26,0.7c1.356,0,2.621-0.672,3.401-1.821
			c1.223-1.881,0.709-4.408-1.14-5.627l-11.889-7.932l-0.005-0.003c-1.05-0.695-1.677-1.868-1.677-3.138v-5.696
			c0-2.244-1.826-4.07-4.07-4.07c-2.244,0-4.07,1.826-4.07,4.07v5.696C33.311,47.074,35.299,50.78,38.626,52.988z"/>
		<linearGradient id="SVGID_3_" gradientUnits="userSpaceOnUse" x1="96.4918" y1="191.9221" x2="73.196" y2="5.0709">
			<stop  offset="0" style="stop-color:#00CEFF"/>
			<stop  offset="1" style="stop-color:#0052FF"/>
		</linearGradient>
		<path class="st3" d="M76.13,104.844l11.893,7.925c1.05,0.695,1.677,1.868,1.677,3.138v5.693c0,2.244,1.826,4.07,4.07,4.07
			c2.244,0,4.07-1.826,4.07-4.07v-5.693c0-3.999-1.987-7.704-5.315-9.911l-11.885-7.92c-0.905-0.605-1.989-0.822-3.054-0.609
			c-1.066,0.213-1.986,0.832-2.592,1.745C73.766,101.074,74.274,103.6,76.13,104.844z"/>
	</g>
</g>
</svg>