<!-- Generator: Adobe Illustrator 22.0.1, SVG Export Plug-In  -->
<svg version="1.1"
	 xmlns="http://www.w3.org/2000/svg" xmlns:xlink="http://www.w3.org/1999/xlink" xmlns:a="http://ns.adobe.com/AdobeSVGViewerExtensions/3.0/"
	 x="0px" y="0px" width="402.054px" height="502.034px" viewBox="0 0 402.054 502.034"
	 style="enable-background:new 0 0 402.054 502.034;" xml:space="preserve">
<style type="text/css">
	.st0{clip-path:url(#SVGID_2_);fill:#F2F2F3;}
	.st1{fill:#4F5A68;}
	.st2{fill:#424C5B;}
	.st3{fill:#64C2D8;}
	.st4{fill:#CDD3E0;}
	.st5{clip-path:url(#SVGID_4_);fill:#F2F2F3;}
</style>
<defs>
</defs>
<g>
	<defs>
		<rect id="SVGID_1_" x="0" width="402.054" height="502.034"/>
	</defs>
	<clipPath id="SVGID_2_">
		<use xlink:href="#SVGID_1_"  style="overflow:visible;"/>
	</clipPath>
	<path class="st0" d="M148.411,502.034c0,0,25.077-45.975,13.583-75.232c0,0-9.404-39.706-50.155-31.347
		c0,0-77.322,18.808-74.188-20.898c0,0,8.359-22.988-5.225-36.571c0,0-8.359-7.315,0-18.809c0,0-17.763-16.718-3.135-25.077v-13.584
		c0,0-40.751-7.314-26.122-28.212c0,0,47.02-54.335,38.661-76.278c-3.135-8.359-6.269-16.718-5.224-25.077
		C39.741,114.377,59.594,34.965,165.129,6.753c1.045,0,3.135-1.045,4.18-1.045c165.093-40.751,295.706,145.241,200.62,286.302
		c-7.314,11.494-15.674,22.988-24.033,33.437c0,0-34.481,32.392,7.315,102.4c0,0,30.302,48.065,27.167,73.143H148.411V502.034
		L148.411,502.034z"/>
</g>
<path class="st1" d="M215.284,157.218c-19.853,0-36.571-16.718-36.571-36.571c0-19.853,16.718-36.572,36.571-36.572
	s36.571,16.719,36.571,36.572C251.855,140.5,235.137,157.218,215.284,157.218L215.284,157.218z M290.517,99.749
	c-2.09-6.269-4.18-12.539-7.315-17.763l6.27-14.629l-20.898-20.898l-14.629,6.269c-6.269-3.135-11.494-5.225-17.763-7.314
	l-5.224-14.629h-30.303l-5.224,14.629c-6.269,2.09-12.539,4.18-17.763,7.314l-14.629-6.269l-20.898,20.898l6.27,14.629
	c-3.135,5.225-5.225,11.494-7.315,17.763l-14.628,5.224v30.302l14.628,5.225c2.09,6.269,4.18,12.539,7.315,17.763l-6.27,14.629
	l20.898,20.898l14.629-6.27c5.224,3.135,11.494,5.225,17.763,7.314l5.224,14.629h30.303l5.224-14.629
	c6.269-2.089,12.539-4.179,17.763-7.314l14.629,6.27l20.898-20.898l-6.27-14.629c3.135-5.224,5.225-11.494,7.315-17.763
	l14.628-5.225v-30.302L290.517,99.749L290.517,99.749z"/>
<path class="st2" d="M240.362,146.769c-14.629,14.629-37.617,14.629-52.245,0c-14.629-14.628-14.629-37.616,0-52.245
	c14.628-14.629,37.616-14.629,52.245,0C254.99,109.153,254.99,132.141,240.362,146.769L240.362,146.769z M253.945,81.986
	c-21.943-21.943-56.424-21.943-78.367,0c-21.943,21.943-21.943,56.425,0,78.368c21.943,21.943,56.424,21.943,78.367,0
	S275.888,102.883,253.945,81.986L253.945,81.986z"/>
<path class="st3" d="M257.08,252.304c-8.359-3.135-12.539-13.584-9.404-21.943c3.135-8.359,13.584-12.539,21.943-9.404
	c8.359,3.135,12.539,13.584,9.404,21.943C275.888,251.259,266.484,255.439,257.08,252.304L257.08,252.304z M298.876,240.81
	c0-3.135,0-6.269,0-8.359l5.224-5.225l-5.224-12.538h-7.314c-2.09-2.09-4.18-4.18-6.27-6.27v-7.314l-12.539-5.225l-5.224,5.225
	c-3.135,0-6.269,0-8.359,0l-5.225-5.225l-12.538,5.225v7.314c-2.09,2.09-4.18,4.18-6.27,6.27h-7.314l-5.225,12.538l5.225,5.225
	c0,3.135,0,6.269,0,8.359l-4.18,5.224l5.225,12.539h7.314c2.09,2.09,4.18,4.18,6.269,6.27v7.314l12.539,5.224l5.225-5.224
	c3.134,0,6.269,0,8.359,0l5.224,5.224l12.539-5.224v-7.314c2.09-2.09,4.18-4.18,6.269-6.27h7.315l5.224-12.539L298.876,240.81
	L298.876,240.81z"/>
<path class="st4" d="M323.953,185.43c-8.359-3.134-12.538-13.583-9.404-21.942c3.135-8.36,13.584-12.539,21.943-9.405
	c8.359,3.135,12.539,13.584,9.404,21.943C342.762,184.386,332.313,188.565,323.953,185.43L323.953,185.43z M365.749,173.937
	c0-3.135,0-6.27,0-8.36l5.225-5.224l-5.225-12.539h-7.314c-2.09-2.09-4.18-4.179-6.269-6.269v-7.315l-12.539-5.224l-5.225,5.224
	c-3.134,0-6.269,0-8.359,0l-5.224-4.179l-12.539,5.224v7.315c-2.09,2.089-4.18,4.179-6.269,6.269h-7.315l-5.224,12.539l5.224,5.224
	c0,3.135,0,6.27,0,8.359l-5.224,5.225l5.224,12.539h7.315c2.089,2.089,4.179,4.179,6.269,6.269v7.314l12.539,5.225l5.224-5.225
	c3.135,0,6.27,0,8.359,0l5.225,5.225l12.539-5.225v-7.314c2.089-2.09,4.179-4.18,6.269-6.269h7.314l5.225-12.539L365.749,173.937
	L365.749,173.937z"/>
</svg>