<!-- Generator: Adobe Illustrator 22.0.1, SVG Export Plug-In  -->
<svg version="1.1"
	 xmlns="http://www.w3.org/2000/svg" xmlns:xlink="http://www.w3.org/1999/xlink" xmlns:a="http://ns.adobe.com/AdobeSVGViewerExtensions/3.0/"
	 x="0px" y="0px" width="501.551px" height="501.551px" viewBox="0 0 501.551 501.551"
	 style="enable-background:new 0 0 501.551 501.551;" xml:space="preserve">
<style type="text/css">
	.st0{fill:#89DAF7;}
	.st1{fill:#F4CC68;}
	.st2{fill:#28A0BC;}
	.st3{fill:#E6AE5C;}
	.st4{fill:#FFFFFF;}
	.st5{fill:#F2C362;}
</style>
<defs>
</defs>
<polygon class="st0" points="296.751,412.735 204.8,412.735 220.473,379.298 234.057,347.951 267.494,347.951 281.078,379.298 
	296.751,412.735 "/>
<path class="st1" d="M355.265,412.735H146.286c-11.494,0-20.898,9.404-20.898,20.898v67.918h249.73v-67.918
	C376.163,422.139,366.759,412.735,355.265,412.735L355.265,412.735z"/>
<path class="st2" d="M281.078,379.298c-8.36,4.18-16.719,8.359-25.078,11.494l-5.224,1.045l-5.225-2.09
	c-8.359-3.135-16.718-7.314-25.078-11.494l13.584-31.347h32.392L281.078,379.298L281.078,379.298z"/>
<path class="st3" d="M459.755,100.31c0,50.155-17.763,96.131-48.065,132.702c-38.661,45.976-96.131,76.278-160.914,76.278
	c-64.784,0-122.254-29.257-160.915-76.278c-29.257-35.526-48.065-82.547-48.065-132.702v-1.045H458.71v1.045H459.755L459.755,100.31
	z M0,57.469v42.841C0,204.8,64.784,294.661,155.69,332.278c29.257,12.538,61.649,18.808,95.086,18.808
	c33.436,0,65.828-6.27,95.085-18.808c90.906-37.617,155.69-127.478,155.69-231.968V57.469H0L0,57.469z"/>
<path class="st3" d="M413.78,0H87.771c-7.314,0-12.539,6.269-12.539,12.539c0,7.314,5.224,13.584,12.539,13.584H413.78
	c7.314,0,12.538-6.269,12.538-12.539C426.318,6.269,421.094,0,413.78,0L413.78,0z"/>
<path class="st1" d="M413.78,26.122v112.849c0,104.49-64.784,199.576-163.005,237.192
	c-98.22-38.661-163.004-132.702-163.004-238.236V26.122H413.78L413.78,26.122z"/>
<polygon class="st4" points="250.776,73.143 272.718,140.016 342.727,140.016 286.302,181.812 307.2,248.686 250.776,206.89 
	194.351,248.686 215.249,181.812 158.824,140.016 228.833,140.016 250.776,73.143 "/>
<polygon class="st5" points="87.771,26.122 412.735,26.122 412.735,41.796 87.771,41.796 87.771,26.122 "/>
</svg>