<!-- Generator: Adobe Illustrator 22.0.1, SVG Export Plug-In  -->
<svg version="1.1"
	 xmlns="http://www.w3.org/2000/svg" xmlns:xlink="http://www.w3.org/1999/xlink" xmlns:a="http://ns.adobe.com/AdobeSVGViewerExtensions/3.0/"
	 x="0px" y="0px" width="184.406px" height="166.396px" viewBox="0 0 184.406 166.396"
	 style="enable-background:new 0 0 184.406 166.396;" xml:space="preserve">
<style type="text/css">
	.st0{fill:#D5FFFF;}
	.st1{fill:url(#SVGID_1_);}
	.st2{fill:url(#SVGID_2_);}
	.st3{fill:url(#SVGID_3_);}
	.st4{fill:url(#SVGID_4_);}
</style>
<defs>
</defs>
<g>
	<polygon class="st0" points="121.357,6.237 132.418,24.915 153.932,22.019 155.794,43.647 176.434,50.372 168.728,70.666 
		184.406,85.681 168.657,100.622 176.268,120.952 155.597,127.58 153.633,149.199 132.133,146.202 120.983,164.828 102.913,152.799 
		84.786,164.742 73.724,146.064 52.21,148.96 50.348,127.332 29.708,120.607 37.414,100.313 21.736,85.298 37.485,70.357 
		29.874,50.027 50.546,43.399 52.51,21.78 74.01,24.777 85.159,6.151 103.23,18.18 	"/>
	<g>
		<linearGradient id="SVGID_1_" gradientUnits="userSpaceOnUse" x1="137.5645" y1="180.6072" x2="6.7771" y2="-8.3633">
			<stop  offset="0" style="stop-color:#00CEFF"/>
			<stop  offset="1" style="stop-color:#0052FF"/>
		</linearGradient>
		<path class="st1" d="M165.721,135.601l-19.012-28.528l1.873-0.585c1.021-0.319,1.857-1.016,2.354-1.964
			c0.497-0.948,0.595-2.032,0.275-3.056c-0.027-0.087-0.058-0.172-0.09-0.256l-5.822-14.974l11.862-11.031
			c1.617-1.504,1.708-4.044,0.205-5.66c-0.065-0.07-0.133-0.138-0.205-0.205l-11.862-11.027l5.825-14.974
			c0.801-2.058-0.222-4.385-2.283-5.186c-0.086-0.033-0.172-0.063-0.257-0.089l-15.61-4.868l-1.363-15.994
			c-0.092-1.093-0.636-2.113-1.49-2.798c-0.856-0.688-1.97-0.995-3.052-0.84l-16.262,2.252l-8.321-13.87
			c-0.55-0.918-1.424-1.566-2.462-1.826c-1.038-0.26-2.115-0.1-3.027,0.446c-0.048,0.029-0.095,0.059-0.15,0.094L83.197,9.646
			L69.551,0.662c-1.844-1.213-4.333-0.703-5.547,1.138c-0.032,0.049-0.064,0.099-0.093,0.148L55.59,15.824l-16.259-2.252
			c-1.06-0.148-2.113,0.127-2.967,0.772c-0.854,0.645-1.405,1.584-1.551,2.64c-0.01,0.07-0.018,0.14-0.025,0.216l-1.366,15.995
			l-15.597,4.868c-1.021,0.319-1.857,1.016-2.354,1.964c-0.497,0.948-0.595,2.032-0.275,3.058c0.026,0.084,0.056,0.167,0.089,0.254
			l5.822,14.974L9.232,69.343c-1.617,1.504-1.708,4.044-0.199,5.667c0.064,0.068,0.13,0.135,0.199,0.198l11.862,11.027
			l-5.825,14.974c-0.388,0.997-0.364,2.086,0.067,3.065c0.431,0.979,1.218,1.732,2.211,2.119c0.085,0.034,0.172,0.063,0.263,0.092
			l2.056,0.64L0.593,138.444c-1.158,1.881-0.569,4.353,1.311,5.511c0.844,0.52,1.844,0.708,2.818,0.53h0l26.165-4.757l4.691,23.457
			c0.319,1.594,1.555,2.828,3.173,3.149c0.231,0.041,0.466,0.062,0.681,0.062c0.024,0,0.049,0,0.072-0.001
			c1.343,0,2.588-0.666,3.333-1.783l18.041-27.061l3.029,5.051c0.558,0.933,1.487,1.606,2.545,1.847
			c0.291,0.067,0.589,0.101,0.878,0.101c0.798,0.002,1.567-0.223,2.232-0.661l13.635-8.983l13.645,8.983
			c1.845,1.216,4.334,0.704,5.55-1.142l3.123-5.198l18.041,27.064c0.745,1.117,1.99,1.783,3.33,1.783
			c0.254,0.005,0.525-0.026,0.78-0.076c1.594-0.316,2.831-1.551,3.149-3.145l4.746-23.777l26.466,2.416
			c1.068,0.097,2.106-0.228,2.927-0.913c0.822-0.685,1.327-1.65,1.424-2.716C166.46,137.276,166.226,136.358,165.721,135.601z
			 M27.759,109.587l5.661,1.766l1.363,15.994c0.092,1.092,0.636,2.112,1.494,2.8c0.855,0.682,1.965,0.989,3.048,0.837l16.262-2.252
			l0.733,1.223L41.544,152.12l-3.573-17.834c-0.378-1.891-2.065-3.22-3.936-3.22c-0.234,0-0.47,0.021-0.708,0.064l-21.204,3.857
			L27.759,109.587z M57.11,120.428l-14.701,2.033l-1.235-14.469c-0.139-1.631-1.239-3-2.802-3.485l-14.08-4.394l5.241-13.505
			c0.599-1.539,0.205-3.261-1.005-4.386l-10.684-9.945l10.697-9.946c1.21-1.125,1.605-2.847,1.006-4.385l-5.241-13.512l14.083-4.391
			c1.564-0.486,2.665-1.853,2.804-3.485l1.235-14.469l14.696,2.035c1.603,0.227,3.175-0.521,4.004-1.909l7.535-12.561l12.331,8.137
			c1.339,0.882,3.068,0.882,4.406,0l12.363-8.138l7.539,12.571c0.831,1.368,2.391,2.115,3.982,1.901l14.701-2.033l1.235,14.469
			c0.139,1.631,1.24,3,2.802,3.485l14.084,4.394l-5.256,13.506c-0.599,1.54-0.204,3.261,1.005,4.386l10.694,9.946l-10.697,9.945
			c-1.209,1.125-1.604,2.847-1.005,4.385l5.241,13.512l-14.069,4.391c-1.564,0.486-2.665,1.853-2.804,3.485l-1.235,14.47
			l-14.705-2.026c-1.59-0.214-3.148,0.536-3.98,1.91L97.76,134.91l-12.36-8.148c-0.669-0.441-1.436-0.661-2.203-0.661
			c-0.767,0-1.534,0.22-2.203,0.661L68.631,134.9l-7.535-12.565c-0.719-1.2-2.035-1.946-3.431-1.947
			C57.465,120.38,57.283,120.402,57.11,120.428z M110.812,128.73l16.259,2.252c1.061,0.149,2.114-0.127,2.967-0.772
			c0.853-0.645,1.405-1.584,1.551-2.639c0.01-0.073,0.018-0.146,0.024-0.217l1.366-15.995l5.767-1.798l15.662,23.504l-21.715-1.984
			c-2.009-0.153-3.846,1.217-4.27,3.206l-3.566,17.826l-14.776-22.164L110.812,128.73z"/>
		<linearGradient id="SVGID_2_" gradientUnits="userSpaceOnUse" x1="148.7027" y1="172.8984" x2="17.9153" y2="-16.0721">
			<stop  offset="0" style="stop-color:#00CEFF"/>
			<stop  offset="1" style="stop-color:#0052FF"/>
		</linearGradient>
		<path class="st2" d="M67.88,100.858h39.9c5.191-0.026,9.435-4.27,9.461-9.475c-0.008-1.239-0.263-2.464-0.745-3.6
			c0.23-0.189,0.449-0.388,0.653-0.595c2.792-2.715,3.576-6.822,2.079-10.329c0.23-0.189,0.448-0.388,0.652-0.594
			c2.792-2.715,3.576-6.822,2.079-10.329c0.23-0.189,0.448-0.388,0.651-0.594c1.806-1.755,2.835-4.207,2.822-6.72
			c0-5.22-4.247-9.467-9.467-9.467h-17.84v-9.647c0.004-3.984-1.543-7.731-4.358-10.551c-2.814-2.82-6.558-4.375-10.571-4.379
			c-2.209,0-4.006,1.797-4.006,4.006v12.708l-4.655,9.29l-7.2,5.761c-0.718-1.034-1.912-1.714-3.254-1.726H44.967
			c-2.209,0-4.006,1.797-4.006,4.006v40.961c0,2.209,1.797,4.006,4.006,4.006h19.115C65.845,103.588,67.346,102.443,67.88,100.858z
			 M94.12,57.166h21.846c0.803,0,1.456,0.653,1.456,1.46c0.001,0.382-0.157,0.751-0.473,1.049c-0.253,0.26-0.611,0.393-0.983,0.403
			h-8.192c-2.209,0-4.006,1.797-4.006,4.006c0,2.209,1.797,4.006,4.006,4.006h5.461c0.803,0,1.456,0.653,1.456,1.459
			c0.001,0.382-0.157,0.751-0.473,1.049c-0.254,0.26-0.607,0.398-0.983,0.403h-8.192c-2.209,0-4.006,1.797-4.006,4.006
			s1.797,4.006,4.006,4.006h5.461c0.803,0,1.456,0.653,1.456,1.46c0.001,0.381-0.157,0.75-0.472,1.049
			c-0.254,0.26-0.609,0.417-0.983,0.403h-8.192c-2.209,0-4.006,1.797-4.006,4.006c0,2.209,1.797,4.006,4.006,4.006h5.462
			c0.803,0,1.456,0.653,1.456,1.46c0.001,0.381-0.157,0.75-0.472,1.049c-0.254,0.259-0.607,0.406-0.983,0.402H68.088V66.007
			l12.151-9.718l0.002-0.002c0.448-0.36,0.821-0.822,1.08-1.336l5.462-10.924c0.275-0.553,0.421-1.172,0.421-1.789v-8.377
			c1.798,1.273,2.917,3.365,2.911,5.646V53.16C90.114,55.369,91.911,57.166,94.12,57.166z M60.076,62.628v32.949H48.973V62.628
			H60.076z"/>
	</g>
</g>
</svg>