<!-- Generator: Adobe Illustrator 22.0.1, SVG Export Plug-In  -->
<svg version="1.1"
	 xmlns="http://www.w3.org/2000/svg" xmlns:xlink="http://www.w3.org/1999/xlink" xmlns:a="http://ns.adobe.com/AdobeSVGViewerExtensions/3.0/"
	 x="0px" y="0px" width="501.551px" height="501.551px" viewBox="0 0 501.551 501.551"
	 style="enable-background:new 0 0 501.551 501.551;" xml:space="preserve">
<style type="text/css">
	.st0{fill:#89DAF7;}
	.st1{fill:#28A0BC;}
	.st2{fill:#F2F2F3;}
</style>
<defs>
</defs>
<path class="st0" d="M501.551,250.776c0,20.897-2.09,40.751-7.314,59.559c-3.135,12.538-7.315,24.032-11.494,35.526
	c-10.449,27.168-26.123,51.2-44.931,72.098c-8.359,9.404-16.718,17.763-27.167,26.123c-1.045,0-1.045,1.045-2.09,1.045
	c-3.135,3.134-7.314,5.224-10.449,8.359c-35.526,26.122-79.412,42.841-125.388,47.02c-3.134,0-7.314,0-10.449,1.045
	c-4.179,0-7.314,0-11.493,0c-3.135,0-7.315,0-11.494,0c-3.135,0-7.315,0-10.449-1.045c-47.021-4.179-89.862-20.898-126.433-47.02
	c-3.135-2.09-7.314-5.225-10.449-8.359c0-0.001-1.045-1.045-1.045-1.045c-9.404-8.36-18.808-16.719-27.167-26.123
	c-18.808-20.898-34.482-45.975-44.931-72.098c-5.225-11.494-8.359-22.988-11.494-35.526C3.135,291.527,0,271.673,0,250.776
	C0,111.804,111.804,0,250.776,0C389.747,0,501.551,111.804,501.551,250.776L501.551,250.776z"/>
<path class="st1" d="M212.114,375.118v37.617c-53.29,28.212-99.265,32.391-119.118,33.436c-1.045-1.045-2.09-2.089-2.09-2.089
	c-9.404-8.36-18.808-16.719-27.167-26.123c-18.808-20.898-34.482-45.975-44.931-72.098c-5.225-11.494-8.359-22.988-11.494-35.526
	l32.392-18.808l0,0l0,0c0,0,10.449-10.449,10.449-20.898c0-1.045,0-2.09,0-4.18c-6.269-9.404-12.539-20.898-16.718-32.392
	c-1.045,0-1.045,0-2.09,1.045c-5.224,1.045-11.494-7.314-12.539-16.718c-1.045-8.36,1.045-16.719,5.224-18.808
	c0-3.135-1.045-6.27-1.045-10.449c0-32.392,26.122-58.515,58.514-58.515c32.392,0,58.514,26.123,58.514,58.515
	c0,3.134,0,6.269-1.045,10.449c4.18,2.089,6.27,10.448,5.225,18.808c-1.045,10.449-7.314,17.763-12.539,16.718
	c-1.045,0-1.045,0-2.09-1.045c-4.179,11.494-10.449,22.988-16.718,32.392l0,0c0,1.045-1.045,3.135-1.045,4.18
	c0,11.493,10.449,20.898,10.449,20.898l24.033,13.583l35.526,19.853c3.135,2.09,6.27,4.18,9.404,6.27
	C204.8,342.727,212.114,358.4,212.114,375.118L212.114,375.118z"/>
<path class="st1" d="M494.237,310.335c-3.135,12.538-7.315,24.032-11.494,35.526c-10.449,27.168-26.123,51.2-44.931,72.098
	c-8.359,9.404-16.718,17.763-27.167,26.123c-1.045,0-1.045,1.045-2.09,1.045c-19.853-1.045-65.828-5.225-119.118-33.437v-37.617
	c0-16.718,7.314-32.391,19.853-42.84c3.134-2.09,5.224-4.18,9.404-6.27l35.526-19.853l24.033-13.583c0,0,12.539-12.539,9.404-25.078
	l0,0c-6.269-9.404-12.539-20.898-16.718-32.392c0,0-1.045,0-2.09,1.045c-5.224,1.045-11.494-7.314-12.539-16.718
	c-1.045-8.359,1.045-16.719,5.225-18.808c0-3.135-1.045-6.27-1.045-10.449c0-32.392,26.122-58.515,58.514-58.515
	s58.514,26.123,58.514,58.515c0,3.134,0,6.269-1.045,10.449c4.18,2.089,6.27,10.449,5.225,18.808
	c-1.045,10.449-7.314,17.763-12.539,16.718c-1.045,0-1.045,0-2.09-1.045c-4.179,11.494-10.449,22.988-16.718,32.392
	c0,1.045,0,2.09,0,4.18c0,11.493,10.449,20.898,10.449,20.898l0,0L494.237,310.335L494.237,310.335z"/>
<path class="st2" d="M396.016,329.143L354.22,305.11l-42.84-24.032c0,0-18.809-17.764-14.629-34.482h-0.024
	c11.427-16.56,20.882-37.475,27.456-57.837c5.902-1.148,11.886-6.504,15.096-14.283c4.402-10.669,1.916-21.816-5.553-24.898
	c-0.134-0.055-0.272-0.085-0.407-0.135c0.001-0.008,0.002-0.016,0.003-0.023c1.045-5.224,1.045-10.449,1.045-14.628
	c0-45.976-37.616-83.592-83.591-83.592c-45.976,0-83.592,37.616-83.592,83.592c0,4.179,0,9.404,1.045,14.628
	c0.019,0.155,0.042,0.314,0.062,0.469c-0.227,0.076-0.459,0.133-0.682,0.226c-7.468,3.081-9.954,14.228-5.552,24.897
	c3.258,7.896,9.375,13.305,15.362,14.341c6.588,20.439,16.054,41.251,27.489,57.671c4.802,17.619-13.692,35.098-13.692,35.098
	l0.037,1.572l-1.082-2.616l-42.84,24.032l-42.841,24.033c-25.078,14.628-40.751,41.796-40.751,71.053v17.763
	c8.359,9.404,17.763,17.763,27.167,26.123l1.045,1.044c3.135,3.135,7.314,6.27,10.449,8.36
	c36.571,26.122,79.412,42.84,126.433,47.02c3.134,1.045,7.314,1.045,10.449,1.045c4.179,0,8.359,0,11.494,0
	c4.179,0,7.314,0,11.493,0c3.135-1.045,7.315-1.045,10.449-1.045c45.976-4.18,89.862-20.898,125.388-47.02
	c3.135-3.135,7.314-5.225,10.449-8.36c1.045,0,1.045-1.044,2.09-1.044c10.449-8.36,18.808-16.719,27.167-26.123v-17.763
	C437.812,370.939,422.139,343.771,396.016,329.143z"/>
</svg>